<svg width="594" height="35" viewBox="0 0 594 35" fill="none" xmlns="http://www.w3.org/2000/svg">
<path d="M43.5659 33.4737H55.3043L34.1178 0.673323H21.2342L0 33.4737H11.643L15.6035 27.1253H39.653L43.5659 33.4737ZM19.8027 20.344L27.6283 7.74321L35.4062 20.344H19.8027Z" fill="white"/>
<path d="M68.0304 33.4737V23.951H80.3892L92.0799 33.4737H104.248L93.5592 25.0091L90.9824 23.422L93.082 23.3739C100.287 22.7968 104.534 19.334 104.534 12.1198C104.534 3.5109 98.9512 0.673323 90.9347 0.673323H58.3438V33.4737H68.0304ZM68.0304 9.04176H89.9804C93.1774 9.04176 94.5135 9.95555 94.5135 12.8893C94.5135 15.5826 93.1774 16.6407 89.9804 16.6407H68.0304V9.04176Z" fill="white"/>
<path d="M118.45 33.4737V10.9174L146.651 33.4737H157.483V0.673323H147.797V22.8449L119.834 0.673323H108.764V33.4737H118.45Z" fill="white"/>
<path d="M188.399 34.1471C207.057 34.1471 215.121 28.8086 215.121 17.0735C215.121 5.33848 207.057 0 188.399 0C169.742 0 161.678 5.33848 161.678 17.0735C161.678 28.8086 169.742 34.1471 188.399 34.1471ZM188.399 25.7786C175.325 25.7786 171.364 23.422 171.364 17.0735C171.364 10.7251 175.325 8.36844 188.399 8.36844C201.426 8.36844 205.244 10.7251 205.244 17.0735C205.244 23.422 201.426 25.7786 188.399 25.7786Z" fill="white"/>
<path d="M228.03 25.1053V0.673323H218.343V33.4737H260.334V25.1053H228.03Z" fill="white"/>
<path d="M295.554 33.4737C306.672 33.4737 314.212 29.8667 314.212 17.0254C314.212 4.56897 306.768 0.673323 295.554 0.673323H263.87V33.4737H295.554ZM273.557 9.04176H294.648C301.376 9.04176 304.191 10.6289 304.191 17.0254C304.191 23.5182 301.376 25.1053 294.648 25.1053H273.557V9.04176Z" fill="white"/>
<path d="M340.845 33.4737V23.951H353.204L364.895 33.4737H377.063L366.374 25.0091L363.797 23.422L365.897 23.3739C373.102 22.7968 377.349 19.334 377.349 12.1198C377.349 3.5109 371.766 0.673323 363.75 0.673323H331.159V33.4737H340.845ZM340.845 9.04176H362.795C365.992 9.04176 367.329 9.95555 367.329 12.8893C367.329 15.5826 365.992 16.6407 362.795 16.6407H340.845V9.04176Z" fill="white"/>
<path d="M406.973 34.1471C425.631 34.1471 433.695 28.8086 433.695 17.0735C433.695 5.33848 425.631 0 406.973 0C388.316 0 380.252 5.33848 380.252 17.0735C380.252 28.8086 388.316 34.1471 406.973 34.1471ZM406.973 25.7786C393.899 25.7786 389.938 23.422 389.938 17.0735C389.938 10.7251 393.899 8.36844 406.973 8.36844C420 8.36844 423.818 10.7251 423.818 17.0735C423.818 23.422 420 25.7786 406.973 25.7786Z" fill="white"/>
<path d="M484.411 25.1053H465.468L449.101 25.8267C453.681 24.4801 461.412 21.8349 465.897 19.6225L484.173 8.75319V1.05808H437.601V9.42651H456.783L472.578 8.75319C469.19 9.66698 462.318 11.9274 458.358 13.755L436.837 25.8267V33.4737H484.411V25.1053Z" fill="white"/>
<path d="M514.337 34.1471C532.995 34.1471 541.059 28.8086 541.059 17.0735C541.059 5.33848 532.995 0 514.337 0C495.68 0 487.616 5.33848 487.616 17.0735C487.616 28.8086 495.68 34.1471 514.337 34.1471ZM514.337 25.7786C501.263 25.7786 497.302 23.422 497.302 17.0735C497.302 10.7251 501.263 8.36844 514.337 8.36844C527.364 8.36844 531.181 10.7251 531.181 17.0735C531.181 23.422 527.364 25.7786 514.337 25.7786Z" fill="white"/>
<path d="M554.967 33.4737V10.9174L583.168 33.4737H594V0.673323H584.313V22.8449L556.351 0.673323H545.281V33.4737H554.967Z" fill="white"/>
</svg>
