<svg width="347" height="35" viewBox="0 0 347 35" fill="none" xmlns="http://www.w3.org/2000/svg">
<path d="M43.5659 33.8004H55.3043L34.1178 1H21.2342L0 33.8004H11.643L15.6035 27.452H39.653L43.5659 33.8004ZM19.8027 20.6706L27.6283 8.06988L35.4062 20.6706H19.8027Z" fill="white"/>
<path d="M93.6866 33.4737V23.951H106.045L117.736 33.4737H129.904L119.215 25.0091L116.639 23.422L118.738 23.3739C125.943 22.7968 130.19 19.334 130.19 12.1198C130.19 3.5109 124.607 0.673323 116.591 0.673323H84V33.4737H93.6866ZM93.6866 9.04176H115.637C118.834 9.04176 120.17 9.95555 120.17 12.8893C120.17 15.5826 118.834 16.6407 115.637 16.6407H93.6866V9.04176Z" fill="white"/>
<path d="M159.815 34.1471C178.472 34.1471 186.536 28.8086 186.536 17.0735C186.536 5.33848 178.472 0 159.815 0C141.157 0 133.093 5.33848 133.093 17.0735C133.093 28.8086 141.157 34.1471 159.815 34.1471ZM159.815 25.7786C146.74 25.7786 142.779 23.422 142.779 17.0735C142.779 10.7251 146.74 8.36844 159.815 8.36844C172.841 8.36844 176.659 10.7251 176.659 17.0735C176.659 23.422 172.841 25.7786 159.815 25.7786Z" fill="white"/>
<path d="M237.253 25.1053H218.309L201.942 25.8267C206.523 24.4801 214.253 21.8349 218.738 19.6225L237.014 8.75319V1.05808H190.442V9.42651H209.624L225.419 8.75319C222.031 9.66698 215.159 11.9274 211.199 13.755L189.678 25.8267V33.4737H237.253V25.1053Z" fill="white"/>
<path d="M267.178 34.1471C285.836 34.1471 293.9 28.8086 293.9 17.0735C293.9 5.33848 285.836 0 267.178 0C248.521 0 240.457 5.33848 240.457 17.0735C240.457 28.8086 248.521 34.1471 267.178 34.1471ZM267.178 25.7786C254.104 25.7786 250.143 23.422 250.143 17.0735C250.143 10.7251 254.104 8.36844 267.178 8.36844C280.205 8.36844 284.023 10.7251 284.023 17.0735C284.023 23.422 280.205 25.7786 267.178 25.7786Z" fill="white"/>
<path d="M307.808 33.4737V10.9174L336.009 33.4737H346.841V0.673323H337.155V22.8449L309.192 0.673323H298.122V33.4737H307.808Z" fill="white"/>
<path d="M73.056 26.7998H66V33.9998H73.056V26.7998Z" fill="white"/>
</svg>
