<svg width="263" height="35" viewBox="0 0 263 35" fill="none" xmlns="http://www.w3.org/2000/svg">
<path d="M9.84579 33.4737V23.951H22.2046L33.8953 33.4737H46.0632L35.3745 25.0091L32.7978 23.422L34.8974 23.3739C42.1027 22.7968 46.3495 19.334 46.3495 12.1198C46.3495 3.5109 40.7666 0.673323 32.7501 0.673323H0.15918V33.4737H9.84579ZM9.84579 9.04176H31.7957C34.9928 9.04176 36.3289 9.95555 36.3289 12.8893C36.3289 15.5826 34.9928 16.6407 31.7957 16.6407H9.84579V9.04176Z" fill="white"/>
<path d="M75.9737 34.1471C94.6311 34.1471 102.695 28.8086 102.695 17.0735C102.695 5.33848 94.6311 0 75.9737 0C57.3162 0 49.252 5.33848 49.252 17.0735C49.252 28.8086 57.3162 34.1471 75.9737 34.1471ZM75.9737 25.7786C62.8992 25.7786 58.9387 23.422 58.9387 17.0735C58.9387 10.7251 62.8992 8.36844 75.9737 8.36844C89.0005 8.36844 92.8179 10.7251 92.8179 17.0735C92.8179 23.422 89.0005 25.7786 75.9737 25.7786Z" fill="white"/>
<path d="M153.412 25.1053H134.468L118.101 25.8267C122.682 24.4801 130.412 21.8349 134.897 19.6225L153.173 8.75319V1.05808H106.601V9.42651H125.783L141.578 8.75319C138.19 9.66698 131.319 11.9274 127.358 13.755L105.838 25.8267V33.4737H153.412V25.1053Z" fill="white"/>
<path d="M183.338 34.1471C201.995 34.1471 210.059 28.8086 210.059 17.0735C210.059 5.33848 201.995 0 183.338 0C164.68 0 156.616 5.33848 156.616 17.0735C156.616 28.8086 164.68 34.1471 183.338 34.1471ZM183.338 25.7786C170.263 25.7786 166.302 23.422 166.302 17.0735C166.302 10.7251 170.263 8.36844 183.338 8.36844C196.364 8.36844 200.182 10.7251 200.182 17.0735C200.182 23.422 196.364 25.7786 183.338 25.7786Z" fill="white"/>
<path d="M223.968 33.4737V10.9174L252.169 33.4737H263V0.673323H253.314V22.8449L225.351 0.673323H214.281V33.4737H223.968Z" fill="white"/>
</svg>
