<svg width="500" height="500" viewBox="0 0 500 500" fill="none" xmlns="http://www.w3.org/2000/svg">
<path d="M0 102.564C0 45.9195 45.9195 0 102.564 0H397.436C454.08 0 500 45.9195 500 102.564V397.436C500 454.08 454.08 500 397.436 500H102.564C45.9195 500 0 454.08 0 397.436V102.564Z" fill="#F83F2B"/>
<path d="M155.298 364.909C157.802 364.909 159.806 362.906 159.806 360.276V282.903C164.438 282.652 175.956 277.018 196.99 277.018C241.311 277.018 267.854 299.179 311.548 299.179C328.701 299.179 337.215 297.05 345.227 293.294C351.988 290.289 356.495 285.907 356.495 279.272V158.078C356.495 153.195 353.365 150.816 348.858 150.816C343.349 150.816 331.831 156.576 310.171 156.576C266.226 156.576 239.683 134.415 195.488 134.415C178.46 134.415 169.947 136.669 161.809 140.299C155.173 143.429 150.666 147.686 150.666 154.322V360.276C150.666 362.78 152.794 364.909 155.298 364.909Z" fill="white"/>
</svg>
