<svg width="34" height="34" viewBox="0 0 34 34" fill="none" xmlns="http://www.w3.org/2000/svg">
<path d="M8.68555 17.3545C8.68555 17.627 8.7998 17.8906 9.00195 18.084L14.7764 23.8584C15.0049 24.0781 15.2422 24.1748 15.4883 24.1748C16.0508 24.1748 16.4551 23.7793 16.4551 23.2432C16.4551 22.9619 16.3408 22.7246 16.165 22.5488L14.1875 20.5449L11.6387 18.2158L13.6777 18.3389L24.3301 18.3389C24.9189 18.3389 25.3232 17.9346 25.3232 17.3545C25.3232 16.7832 24.9189 16.3789 24.3301 16.3789L13.6777 16.3789L11.6387 16.502L14.1875 14.1729L16.165 12.1689C16.3408 11.9932 16.4551 11.7559 16.4551 11.4746C16.4551 10.9385 16.0508 10.543 15.4883 10.543C15.2422 10.543 15.0049 10.6396 14.7939 10.8418L9.00195 16.6338C8.7998 16.8272 8.68555 17.0908 8.68555 17.3545Z" fill="white"/>
</svg>
