<svg width="23" height="23" viewBox="0 0 23 23" fill="none" xmlns="http://www.w3.org/2000/svg">
<path d="M6.55664 21.7168C6.94727 21.7168 7.25 21.5312 7.72852 21.1016L11.166 18.0156L17.123 18.0254C19.9062 18.0352 21.5176 16.3848 21.5176 13.6309V6.39453C21.5176 3.64062 19.9062 2 17.123 2H5.39453C2.61133 2 1 3.64062 1 6.39453V13.6309C1 16.3848 2.66992 18.0156 5.30664 18.0156H5.63867V20.6914C5.63867 21.3164 5.98047 21.7168 6.55664 21.7168ZM6.38086 7.54688C6.04883 7.54688 5.77539 7.26367 5.77539 6.92188C5.77539 6.58008 6.04883 6.30664 6.38086 6.30664H16.0488C16.3906 6.30664 16.6738 6.58008 16.6738 6.92188C16.6738 7.26367 16.3906 7.54688 16.0488 7.54688H6.38086ZM6.38086 10.5742C6.04883 10.5742 5.77539 10.291 5.77539 9.94922C5.77539 9.61719 6.04883 9.32422 6.38086 9.32422H16.0488C16.3906 9.32422 16.6738 9.60742 16.6738 9.94922C16.6738 10.291 16.3906 10.5742 16.0488 10.5742H6.38086ZM6.38086 13.6113C6.04883 13.6113 5.77539 13.3184 5.77539 12.9863C5.77539 12.6348 6.04883 12.3516 6.38086 12.3516H12.6895C13.041 12.3516 13.3145 12.6348 13.3145 12.9863C13.3145 13.3184 13.041 13.6113 12.6895 13.6113H6.38086Z" fill="white"/>
</svg>
