<svg width="46" height="46" viewBox="0 0 46 46" fill="none" xmlns="http://www.w3.org/2000/svg">
<path d="M17.5981 35.3125C18.0474 35.3125 18.3955 35.0991 18.9346 34.605L22.8765 31.0562L29.7495 31.0674C32.9502 31.0786 34.792 29.1919 34.792 26.0249V17.7368C34.792 14.5698 32.9502 12.6943 29.7495 12.6943H16.2505C13.0498 12.6943 11.208 14.5698 11.208 17.7368V26.0249C11.208 29.2031 13.106 31.0562 16.1606 31.0562H16.5537V34.1333C16.5537 34.8521 16.9355 35.3125 17.5981 35.3125ZM17.396 19.0396C17.0142 19.0396 16.6885 18.7139 16.6885 18.3096C16.6885 17.9277 17.0029 17.6133 17.396 17.6133H28.5142C28.9072 17.6133 29.2217 17.9277 29.2217 18.3096C29.2217 18.7139 28.9072 19.0396 28.5142 19.0396H17.396ZM17.396 22.521C17.0142 22.521 16.6885 22.1953 16.6885 21.8022C16.6885 21.4204 17.0029 21.0947 17.396 21.0947H28.5142C28.9072 21.0947 29.2217 21.4204 29.2217 21.8022C29.2217 22.1953 28.9072 22.521 28.5142 22.521H17.396ZM17.396 26.0137C17.0142 26.0137 16.6885 25.688 16.6885 25.3062C16.6885 24.9131 17.0029 24.5874 17.396 24.5874H24.6509C25.0439 24.5874 25.3472 24.9019 25.3472 25.3062C25.3472 25.688 25.0439 26.0137 24.6509 26.0137H17.396Z" fill="#EFEFEF"/>
</svg>
