<svg width="46" height="46" viewBox="0 0 46 46" fill="none" xmlns="http://www.w3.org/2000/svg">
<path d="M28.8062 26.811C23.2358 26.811 19.6982 23.3633 19.6982 17.8154C19.6982 16.5913 19.979 14.9854 20.3608 14.1206C20.4956 13.8398 20.5405 13.6265 20.5405 13.4692C20.5405 13.1211 20.2822 12.7954 19.833 12.7954C19.6758 12.7954 19.4062 12.8291 19.1255 12.9302C15.1724 14.5137 12.5332 18.6802 12.5332 23.1162C12.5332 29.3379 17.2388 33.8188 23.4604 33.8188C27.9526 33.8188 31.8833 31.1123 33.2983 27.541C33.4219 27.249 33.4556 26.9683 33.4556 26.811C33.4556 26.3843 33.1411 26.1035 32.7817 26.1035C32.5908 26.1035 32.3999 26.1597 32.1416 26.2607C31.3555 26.5527 30.0752 26.811 28.8062 26.811Z" fill="#EFEFEF"/>
</svg>
