<svg width="29" height="29" viewBox="0 0 29 29" fill="none" xmlns="http://www.w3.org/2000/svg">
<path fill-rule="evenodd" clip-rule="evenodd" d="M2.87912 12.6621C6.43956 12.9574 9.8489 12.2431 12.6717 10.6291C11.2516 8.51968 9.5876 6.58508 7.71429 4.8654C6.4236 5.77111 5.32975 6.92889 4.49874 8.26889C3.66773 9.60889 3.11678 11.1033 2.87912 12.6621ZM7.13462 1.97529C4.96218 3.24669 3.16049 5.06474 1.90879 7.24859C0.657088 9.43244 -0.000997038 11.906 1.13382e-06 14.4231C1.13382e-06 22.3887 6.45742 28.8462 14.4231 28.8462C22.3887 28.8462 28.8462 22.3887 28.8462 14.4231C28.8462 6.45743 22.3887 1.88266e-05 14.4231 1.88266e-05C11.861 -0.00412972 9.34446 0.678783 7.13462 1.97529ZM10.2747 3.50414C12.0067 5.18678 13.5616 7.04264 14.9148 9.0426C16.6278 7.56464 17.957 5.69344 18.7885 3.5893C17.4009 3.03083 15.9188 2.74494 14.4231 2.74727C13.0061 2.74569 11.6008 3.00264 10.2761 3.50551L10.2747 3.50414ZM21.2102 4.92172C20.159 7.44552 18.5015 9.67106 16.3846 11.4011C16.8626 12.2376 17.3063 13.0934 17.7143 13.9657C20.3008 12.9588 23.0989 12.4945 25.9766 12.7322C25.7492 11.1767 25.2099 9.68322 24.391 8.34132C23.5722 6.99942 22.4908 5.83676 21.2115 4.92309L21.2102 4.92172ZM26.0495 15.4959C23.5467 15.2404 21.0769 15.6195 18.7802 16.5C19.7296 19.0103 20.3587 21.6304 20.6525 24.2981C22.1666 23.3429 23.4407 22.0522 24.3763 20.5259C25.3119 18.9996 25.8839 17.2786 26.0481 15.4959H26.0495ZM18.0055 25.5371C17.8034 22.853 17.2259 20.2105 16.2898 17.6868C13.3805 19.3585 10.8832 21.8571 9.14835 24.842C10.783 25.6709 12.5903 26.1015 14.4231 26.0989C15.6731 26.0989 16.8777 25.9025 18.0069 25.5385L18.0055 25.5371ZM6.85852 23.3173C8.86951 19.919 11.7898 17.0371 15.2266 15.1319C14.8826 14.3963 14.5115 13.6738 14.114 12.9657C10.7981 14.8778 6.83379 15.7184 2.78709 15.4094C3.04522 18.48 4.50914 21.3234 6.85852 23.3173Z" fill="white"/>
</svg>
