<svg width="46" height="46" viewBox="0 0 46 46" fill="none" xmlns="http://www.w3.org/2000/svg">
<path fillRule="evenodd" clipRule="evenodd" d="M11.8791 21.6621C15.4396 21.9574 18.8489 21.2431 21.6717 19.6291C20.2516 17.5197 18.5876 15.5851 16.7143 13.8654C15.4236 14.7711 14.3298 15.9289 13.4987 17.2689C12.6677 18.6089 12.1168 20.1033 11.8791 21.6621ZM16.1346 10.9753C13.9622 12.2467 12.1605 14.0647 10.9088 16.2486C9.65709 18.4324 8.999 20.906 9 23.4231C9 31.3887 15.4574 37.8462 23.4231 37.8462C31.3887 37.8462 37.8462 31.3887 37.8462 23.4231C37.8462 15.4574 31.3887 9.00002 23.4231 9.00002C20.861 8.99587 18.3445 9.67878 16.1346 10.9753ZM19.2747 12.5041C21.0067 14.1868 22.5616 16.0426 23.9148 18.0426C25.6278 16.5646 26.957 14.6934 27.7885 12.5893C26.4009 12.0308 24.9188 11.7449 23.4231 11.7473C22.0061 11.7457 20.6008 12.0026 19.2761 12.5055L19.2747 12.5041ZM30.2102 13.9217C29.159 16.4455 27.5015 18.6711 25.3846 20.4011C25.8626 21.2376 26.3063 22.0934 26.7143 22.9657C29.3008 21.9588 32.0989 21.4945 34.9766 21.7322C34.7492 20.1767 34.2099 18.6832 33.391 17.3413C32.5722 15.9994 31.4908 14.8368 30.2115 13.9231L30.2102 13.9217ZM35.0495 24.4959C32.5467 24.2404 30.0769 24.6195 27.7802 25.5C28.7296 28.0103 29.3587 30.6304 29.6525 33.2981C31.1666 32.3429 32.4407 31.0522 33.3763 29.5259C34.3119 27.9996 34.8839 26.2786 35.0481 24.4959H35.0495ZM27.0055 34.5371C26.8034 31.853 26.2259 29.2105 25.2898 26.6868C22.3805 28.3585 19.8832 30.8571 18.1484 33.842C19.783 34.6709 21.5903 35.1015 23.4231 35.0989C24.6731 35.0989 25.8777 34.9025 27.0069 34.5385L27.0055 34.5371ZM15.8585 32.3173C17.8695 28.919 20.7898 26.0371 24.2266 24.1319C23.8826 23.3963 23.5115 22.6738 23.114 21.9657C19.7981 23.8778 15.8338 24.7184 11.7871 24.4093C12.0452 27.48 13.5091 30.3234 15.8585 32.3173Z" fill="white"/>
</svg>
