<svg width="29" height="28" viewBox="0 0 29 28" fill="none" xmlns="http://www.w3.org/2000/svg">
<path fill-rule="evenodd" clip-rule="evenodd" d="M27.4038 4.46538C27.4168 5.35006 27.3072 6.4592 27.2106 7.26809C27.1799 7.53532 27.1318 7.80019 27.0663 8.06096C28.301 10.371 28.8462 13.1504 28.8462 16.1864C28.8462 19.7834 27.1341 22.7464 24.4673 24.7665C21.825 26.7676 18.2596 27.8461 14.4231 27.8461C10.5865 27.8461 7.02115 26.7676 4.37885 24.7665C1.71202 22.7464 0 19.7834 0 16.1864C0 13.1504 0.54375 10.371 1.78125 8.06096C1.71584 7.80019 1.66766 7.53532 1.63702 7.26809C1.5375 6.4592 1.42788 5.35006 1.44231 4.46538C1.45673 3.46992 1.58654 2.47447 1.72933 1.48631C1.79567 1.02866 1.89952 0.598707 2.39135 0.327617C2.89327 0.0506981 3.42115 0.152721 3.94183 0.302841C5.69856 0.805668 7.34567 1.51254 8.89471 2.35787C10.5288 1.86379 12.3721 1.61165 14.4231 1.61165C16.474 1.61165 18.3173 1.86379 19.95 2.35933C21.5208 1.49156 23.1819 0.802343 24.9029 0.304298C25.4236 0.154178 25.9529 0.0506981 26.4534 0.327617C26.9438 0.598707 27.049 1.02866 27.1168 1.48631C27.2582 2.47447 27.3894 3.46992 27.4038 4.46538ZM25.9615 16.1864C25.9615 13.7276 25.4019 10.3565 22.3558 10.3565C20.9827 10.3565 19.6832 10.7208 18.3851 11.0852C17.0885 11.4496 15.7933 11.8139 14.4231 11.8139C13.0529 11.8139 11.7577 11.4496 10.4611 11.0852C9.16298 10.7208 7.8649 10.3565 6.49038 10.3565C3.45288 10.3565 2.88462 13.7378 2.88462 16.1864C2.88462 18.7573 4.0774 20.8954 6.10962 22.4345C8.16346 23.9926 11.0913 24.9312 14.4231 24.9312C17.7548 24.9312 20.6812 23.9911 22.7365 22.4345C24.7688 20.894 25.9615 18.7573 25.9615 16.1864ZM11.5385 16.9151C11.5385 18.9264 10.5692 20.5588 9.375 20.5588C8.18077 20.5588 7.21154 18.9264 7.21154 16.9151C7.21154 14.9038 8.18077 13.2714 9.375 13.2714C10.5692 13.2714 11.5385 14.9038 11.5385 16.9151ZM19.4712 20.5588C20.6654 20.5588 21.6346 18.9264 21.6346 16.9151C21.6346 14.9038 20.6654 13.2714 19.4712 13.2714C18.2769 13.2714 17.3077 14.9038 17.3077 16.9151C17.3077 18.9264 18.2769 20.5588 19.4712 20.5588Z" fill="white"/>
</svg>
