<svg width="46" height="46" viewBox="0 0 46 46" fill="none" xmlns="http://www.w3.org/2000/svg">
<path fill-rule="evenodd" clip-rule="evenodd" d="M36.4038 13.3116C36.4168 14.1963 36.3072 15.3054 36.2106 16.1143C36.1799 16.3815 36.1318 16.6464 36.0663 16.9071C37.301 19.2172 37.8462 21.9966 37.8462 25.0325C37.8462 28.6296 36.1341 31.5926 33.4673 33.6127C30.825 35.6138 27.2596 36.6923 23.4231 36.6923C19.5865 36.6923 16.0212 35.6138 13.3788 33.6127C10.712 31.5926 9 28.6296 9 25.0325C9 21.9966 9.54375 19.2172 10.7812 16.9071C10.7158 16.6464 10.6677 16.3815 10.637 16.1143C10.5375 15.3054 10.4279 14.1963 10.4423 13.3116C10.4567 12.3161 10.5865 11.3207 10.7293 10.3325C10.7957 9.87485 10.8995 9.4449 11.3913 9.17381C11.8933 8.89689 12.4212 8.99891 12.9418 9.14903C14.6986 9.65186 16.3457 10.3587 17.8947 11.2041C19.5288 10.71 21.3721 10.4578 23.4231 10.4578C25.474 10.4578 27.3173 10.71 28.95 11.2055C30.5208 10.3378 32.1819 9.64853 33.9029 9.15049C34.4236 9.00037 34.9529 8.89689 35.4534 9.17381C35.9437 9.4449 36.049 9.87485 36.1168 10.3325C36.2582 11.3207 36.3894 12.3161 36.4038 13.3116ZM34.9615 25.0325C34.9615 22.5738 34.4019 19.2027 31.3558 19.2027C29.9827 19.2027 28.6832 19.567 27.3851 19.9314C26.0885 20.2958 24.7933 20.6601 23.4231 20.6601C22.0529 20.6601 20.7577 20.2958 19.4611 19.9314C18.163 19.567 16.8649 19.2027 15.4904 19.2027C12.4529 19.2027 11.8846 22.584 11.8846 25.0325C11.8846 27.6035 13.0774 29.7416 15.1096 31.2807C17.1635 32.8388 20.0913 33.7774 23.4231 33.7774C26.7548 33.7774 29.6813 32.8373 31.7365 31.2807C33.7688 29.7402 34.9615 27.6035 34.9615 25.0325ZM20.5385 25.7613C20.5385 27.7726 19.5692 29.405 18.375 29.405C17.1808 29.405 16.2115 27.7726 16.2115 25.7613C16.2115 23.75 17.1808 22.1176 18.375 22.1176C19.5692 22.1176 20.5385 23.75 20.5385 25.7613ZM28.4712 29.405C29.6654 29.405 30.6346 27.7726 30.6346 25.7613C30.6346 23.75 29.6654 22.1176 28.4712 22.1176C27.2769 22.1176 26.3077 23.75 26.3077 25.7613C26.3077 27.7726 27.2769 29.405 28.4712 29.405Z" fill="white"/>
</svg>
