<svg width="29" height="29" viewBox="0 0 29 29" fill="none" xmlns="http://www.w3.org/2000/svg">
<path fill-rule="evenodd" clip-rule="evenodd" d="M5.76923 0.153809C4.23914 0.153809 2.77171 0.761637 1.68977 1.84358C0.607828 2.92552 0 4.39294 0 5.92304V23.2307C0 24.7608 0.607828 26.2283 1.68977 27.3102C2.77171 28.3921 4.23914 29 5.76923 29H23.0769C24.607 29 26.0744 28.3921 27.1564 27.3102C28.2383 26.2283 28.8462 24.7608 28.8462 23.2307V5.92304C28.8462 4.39294 28.2383 2.92552 27.1564 1.84358C26.0744 0.761637 24.607 0.153809 23.0769 0.153809H5.76923ZM2.88462 5.92304C2.88462 5.15799 3.18853 4.42428 3.7295 3.88331C4.27047 3.34234 5.00418 3.03842 5.76923 3.03842H23.0769C23.842 3.03842 24.5757 3.34234 25.1167 3.88331C25.6576 4.42428 25.9615 5.15799 25.9615 5.92304V23.2307C25.9615 23.9958 25.6576 24.7295 25.1167 25.2705C24.5757 25.8114 23.842 26.1153 23.0769 26.1153H5.76923C5.00418 26.1153 4.27047 25.8114 3.7295 25.2705C3.18853 24.7295 2.88462 23.9958 2.88462 23.2307V5.92304ZM10.0962 13.1346C10.0962 12.7521 9.9442 12.3852 9.67371 12.1147C9.40323 11.8442 9.03637 11.6923 8.65385 11.6923C8.27132 11.6923 7.90447 11.8442 7.63398 12.1147C7.3635 12.3852 7.21154 12.7521 7.21154 13.1346V21.7884C7.21154 22.1709 7.3635 22.5378 7.63398 22.8083C7.90447 23.0788 8.27132 23.2307 8.65385 23.2307C9.03637 23.2307 9.40323 23.0788 9.67371 22.8083C9.9442 22.5378 10.0962 22.1709 10.0962 21.7884V13.1346ZM10.8173 8.0865C10.8173 8.66029 10.5894 9.21057 10.1836 9.6163C9.77792 10.022 9.22763 10.25 8.65385 10.25C8.08006 10.25 7.52978 10.022 7.12405 9.6163C6.71832 9.21057 6.49038 8.66029 6.49038 8.0865C6.49038 7.51272 6.71832 6.96243 7.12405 6.5567C7.52978 6.15097 8.08006 5.92304 8.65385 5.92304C9.22763 5.92304 9.77792 6.15097 10.1836 6.5567C10.5894 6.96243 10.8173 7.51272 10.8173 8.0865ZM14.4231 11.6923C14.9135 11.6923 15.3462 11.9375 15.6058 12.3096C16.3491 11.9044 17.1822 11.6922 18.0288 11.6923C21.1442 11.6923 23.0769 14.4702 23.0769 16.8428V21.7884C23.0769 22.1709 22.925 22.5378 22.6545 22.8083C22.384 23.0788 22.0171 23.2307 21.6346 23.2307C21.2521 23.2307 20.8852 23.0788 20.6147 22.8083C20.3443 22.5378 20.1923 22.1709 20.1923 21.7884V16.8413C20.1923 15.7336 19.2404 14.5754 18.0288 14.5754C17.2731 14.5754 16.438 14.9865 15.8654 15.9644V21.7884C15.8654 22.1709 15.7134 22.5378 15.4429 22.8083C15.1725 23.0788 14.8056 23.2307 14.4231 23.2307C14.0406 23.2307 13.6737 23.0788 13.4032 22.8083C13.1327 22.5378 12.9808 22.1709 12.9808 21.7884V13.1346C12.9808 12.7521 13.1327 12.3852 13.4032 12.1147C13.6737 11.8442 14.0406 11.6923 14.4231 11.6923Z" fill="white"/>
</svg>
