<svg width="23" height="23" viewBox="0 0 23 23" fill="none" xmlns="http://www.w3.org/2000/svg">
<path d="M11.5 14.7227C12.0176 14.7227 12.4277 14.3125 12.4277 13.8145V4.60547L12.3496 3.23828L12.8965 3.93164L14.1367 5.25C14.293 5.42578 14.5176 5.52344 14.752 5.52344C15.1914 5.52344 15.5625 5.20117 15.5625 4.73242C15.5625 4.49805 15.4746 4.32227 15.3086 4.15625L12.2129 1.17773C11.9785 0.943359 11.7539 0.865234 11.5 0.865234C11.2559 0.865234 11.0312 0.943359 10.7969 1.17773L7.70117 4.15625C7.53516 4.32227 7.4375 4.49805 7.4375 4.73242C7.4375 5.20117 7.80859 5.52344 8.24805 5.52344C8.48242 5.52344 8.7168 5.42578 8.87305 5.25L10.1133 3.93164L10.6602 3.23828L10.582 4.60547V13.8145C10.582 14.3125 10.9922 14.7227 11.5 14.7227ZM6.16797 22.1641H16.8223C18.8633 22.1641 19.9277 21.0996 19.9277 19.0879V10.0645C19.9277 8.05273 18.8633 6.98828 16.8223 6.98828H14.3711V8.99023H16.666C17.4766 8.99023 17.9355 9.41016 17.9355 10.2695V18.8828C17.9355 19.7422 17.4766 20.1621 16.666 20.1621H6.33398C5.51367 20.1621 5.06445 19.7422 5.06445 18.8828V10.2695C5.06445 9.41016 5.51367 8.99023 6.33398 8.99023H8.6582V6.98828H6.16797C4.14648 6.98828 3.0625 8.05273 3.0625 10.0645V19.0879C3.0625 21.0996 4.14648 22.1641 6.16797 22.1641Z" fill="white"/>
</svg>
