<svg width="33" height="28" viewBox="0 0 33 28" fill="none" xmlns="http://www.w3.org/2000/svg">
<path fill-rule="evenodd" clip-rule="evenodd" d="M20.9811 3.19985C20.2614 3.19954 19.5507 3.36151 18.9001 3.67406C18.2496 3.9866 17.6755 4.44193 17.2193 5.00717C16.763 5.57241 16.4361 6.23347 16.262 6.94262C16.0879 7.65177 16.0711 8.39133 16.2126 9.10791C16.2613 9.3562 16.2514 9.61268 16.1835 9.85629C16.1156 10.0999 15.9918 10.3237 15.8221 10.5092C15.6525 10.6947 15.442 10.8367 15.2078 10.9235C14.9736 11.0103 14.7225 11.0394 14.475 11.0085C11.0877 10.5859 7.89452 9.17183 5.28465 6.93858C5.33349 7.90166 5.66273 8.92553 6.37634 9.9974L7.44598 11.6036L5.68951 12.3635L5.35082 12.5107C5.60287 12.8035 5.90533 13.1026 6.24402 13.3986C6.69679 13.7921 7.17577 14.1535 7.67755 14.48L7.69488 14.4912H7.69646L10.135 15.9935L7.58304 17.2893C7.45701 17.3533 7.33099 17.4109 7.20496 17.4621C7.7537 17.9251 8.35823 18.3154 9.00397 18.6235L11.1937 19.6746L9.35999 21.2808C8.35967 22.1575 7.35304 22.8118 6.0471 23.1574C8.05002 24.2408 10.2854 24.8052 12.5547 24.8004C20.1257 24.8004 26.2222 18.6651 26.2222 11.1477V10.3158L26.8917 9.83742C27.9377 9.09191 28.6765 8.08404 29.2058 6.93058H25.8031L25.3746 6.0187C24.9801 5.17507 24.358 4.46241 23.5806 3.96345C22.8031 3.46449 21.9023 3.19971 20.9827 3.19985H20.9811ZM3.21154 14.8784C3.06288 15.0513 2.9526 15.2546 2.88818 15.4746C2.82376 15.6946 2.80671 15.9261 2.83819 16.1534C3.0162 17.4349 3.77078 18.5387 4.60569 19.3818C4.83254 19.6106 5.07514 19.8298 5.33034 20.0393L5.21219 20.0713C4.45446 20.2633 3.43208 20.3033 1.72917 20.1353C1.40758 20.1033 1.08407 20.1724 0.802496 20.3334C0.520921 20.4944 0.294906 20.7394 0.155094 21.0353C0.0152823 21.3311 -0.0315622 21.6635 0.0209116 21.9873C0.0733854 22.3111 0.222639 22.6107 0.448437 22.8454C2.02497 24.4819 3.90829 25.7811 5.98728 26.6664C8.06626 27.5517 10.2988 28.0051 12.5532 28C21.5529 28 28.9349 20.9032 29.3523 11.9476C31.3845 10.215 32.4005 7.86807 32.9487 5.73553C33.0097 5.49884 33.0164 5.25111 32.9683 5.01139C32.9202 4.77166 32.8186 4.54634 32.6713 4.35273C32.524 4.15913 32.335 4.00241 32.1187 3.89462C31.9025 3.78683 31.6648 3.73085 31.4238 3.73098H27.7171C26.8104 2.30128 25.4855 1.196 23.9283 0.570469C22.3712 -0.0550646 20.6602 -0.169414 19.0358 0.243487C17.4114 0.656389 15.9552 1.57579 14.8718 2.87249C13.7885 4.1692 13.1324 5.77803 12.9958 7.47292C10.092 6.70525 7.49377 5.04251 5.55876 2.71351C5.38739 2.50775 5.16762 2.34928 4.91984 2.25282C4.67206 2.15635 4.4043 2.12502 4.1414 2.16172C3.87851 2.19842 3.62901 2.30198 3.41605 2.46277C3.2031 2.62355 3.03359 2.83637 2.92326 3.08146C1.96861 5.1964 1.78588 7.63449 2.85079 10.1142L2.48217 10.2742C2.12941 10.4268 1.84359 10.7049 1.67829 11.0562C1.51298 11.4076 1.47954 11.8081 1.58424 12.1827C1.87725 13.2258 2.53573 14.1473 3.20996 14.8784H3.21154Z" fill="white"/>
</svg>
